# xmcd CD database file
#
# Track frame offsets:
#	180
#	14054
#	27385
#	48013
#	60640
#	76138
#	90898
#	105278
#	118917
#	133097
#	152249
#	169344
#	190841
#	211191
#	224337
#
# Disc length: 3205 seconds
#
# Revision: 0
# Processed by: cddbd v1.5.1PL0 Copyright (c) Steve Scherf et al.
# Submitted via: CDex 1.51
#
DISCID=c50c830f
DTITLE=Country Showdown Band - Another Showdown
DYEAR=1995
DGENRE=Country
TTITLE0=Much Too Young
TTITLE1=Baby, Iam Missing You
TTITLE2=Past The Point Of Rescue
TTITLE3=On My Heart Again
TTITLE4=You Aint Going Nowhere
TTITLE5=Last Thing On My Mind
TTITLE6=Please Dont Bury Me
TTITLE7=Something In My Heart
TTITLE8=Country Girl
TTITLE9=Blue Bells Of Scotland
TTITLE10=Good Night Loving
TTITLE11=Kaw Liga
TTITLE12=We Used To Get Crazy
TTITLE13=Killing Time
TTITLE14=Rainbow Rider
EXTD=YEAR: 1995
EXTT0=
EXTT1=
EXTT2=
EXTT3=
EXTT4=
EXTT5=
EXTT6=
EXTT7=
EXTT8=
EXTT9=
EXTT10=
EXTT11=
EXTT12=
EXTT13=
EXTT14=
PLAYORDER=
